# xmcd
# 
# Track frame offsets:
#     150
#     12604
#     38308
#     51149
#     81157
#     94082
#     121488
#     138643
#     151849
#     166045
#     176334
#     189951
#     202939
#     214790
#     235604
#     262288
#     274806
#     287340
#     307296
#     317775
#     330409
# 
# Disc length: 4568
# 
# Revision: 2
# Processed by: cddbd v1.5.2PL0 Copyright (c) Steve Scherf et al.
# Submitted via: BonkEnc v1.0rc1
# 
DISCID=1f11d615
DTITLE=Various Artist - Raw Blues Vol.1
DYEAR=1990
DGENRE=Blues
TTITLE0=John Lee Hooker - I'm In the Mood
TTITLE1=Howling Wolf - Red Rooster
TTITLE2=Lightnin' Hopkins - Life I USed To Live
TTITLE3=Gregg Smith - Young Men Don't Get the Blues
TTITLE4=Jimmy Reed - Shame, Shame, Shame
TTITLE5=Little Walter,Otis Rush - It's hard for me to beleive Baby
TTITLE6=Mississippi John Hurt - Nobodys Business But Mine
TTITLE7=Elmore James - Dust my broom
TTITLE8=Canned Heat - Roling and Tumbling
TTITLE9=John Lee Hooker - Dimples
TTITLE10=Muddy Waters - Sad Letter
TTITLE11=Howling Wolf - Worried About You
TTITLE12=Etta James - I'd rather go blind
TTITLE13=Gregg Smith - Lowdown
TTITLE14=Mike Bloomfield - Knockin' Myself Out
TTITLE15=Lightnin' Hopkins - Sittin' Down Thinkin'
TTITLE16=Jimmy Reed - Honest I Do
TTITLE17=Little Walter , Otis Rush - Goin' DOwn SLow
TTITLE18=Mississippi John Hurt - Creole Balle
TTITLE19=Muddy Waters - Mean Mistreater
TTITLE20=Howling Wolf - I Ain't Superstitious
EXTD=
EXTT0=
EXTT1=
EXTT2=
EXTT3=
EXTT4=
EXTT5=
EXTT6=
EXTT7=
EXTT8=
EXTT9=
EXTT10=
EXTT11=
EXTT12=
EXTT13=
EXTT14=
EXTT15=
EXTT16=
EXTT17=
EXTT18=
EXTT19=
EXTT20=
PLAYORDER=
